<svg xmlns:xlink="http://www.w3.org/1999/xlink" width="184.597" xmlns="http://www.w3.org/2000/svg" height="260.825" id="screenshot-51275cd7-bba2-807d-8002-6958a7d0c020" viewBox="0 0 184.597 260.825" style="-webkit-print-color-adjust: exact;" fill="none" version="1.1"><g id="shape-51275cd7-bba2-807d-8002-6958a7d0c020" height="260.82458mm" width="184.59703mm" rx="0" ry="0" style="fill: rgb(0, 0, 0);"><g id="shape-51275cd7-bba2-807d-8002-6958a7d26c8f"><g class="fills" id="fills-51275cd7-bba2-807d-8002-6958a7d26c8f"><path color="#000" overflow="visible" rx="0" ry="0" d="M62.626,40.931C57.697,40.931,52.970,42.910,49.484,46.434C45.999,49.957,44.041,54.735,44.041,59.718C44.041,64.700,45.999,69.479,49.484,73.002C52.970,76.525,57.697,78.504,62.626,78.504C72.890,78.504,81.210,70.093,81.211,59.718C81.211,54.736,79.253,49.957,75.767,46.434C72.282,42.911,67.555,40.931,62.626,40.931ZZM53.604,87.932C47.465,87.887,47.936,89.726,46.869,93.377C45.870,100.802,51.872,144.870,50.967,161.994C50.464,171.523,50.798,173.448,55.903,174.657C61.474,175.977,75.908,177.641,79.670,172.710C83.432,167.778,86.605,121.605,86.074,112.074C85.542,102.543,77.788,91.126,77.788,91.126C77.788,91.126,68.255,89.035,57.746,88.151C56.104,88.013,54.741,87.940,53.604,87.932ZZ" style="fill: rgb(255, 255, 255);"/></g></g><g id="shape-51275cd7-bba2-807d-8002-6958a7d85a99"><g class="fills" id="fills-51275cd7-bba2-807d-8002-6958a7d85a99"><path rx="0" ry="0" d="M115.099,0.000C110.311,0.000,109.174,6.316,112.753,13.037C114.561,16.434,114.755,17.422,113.856,18.663C113.257,19.491,108.777,25.869,103.901,32.835C90.956,51.328,84.583,59.963,83.832,60.025C83.467,60.055,83.169,58.669,83.169,56.944C83.169,42.697,61.026,33.995,50.137,44.076C44.630,49.176,40.941,59.370,43.872,66.891C44.823,69.168,44.932,70.288,44.245,70.713C43.709,71.044,39.180,71.579,34.179,71.903C20.721,72.773,4.576,76.127,1.221,78.860C-0.484,80.248,-0.328,84.009,1.221,85.433C3.402,87.439,18.724,89.048,32.358,89.205C40.128,89.294,42.221,89.717,46.677,89.558C43.802,94.178,44.453,107.196,45.961,113.172C47.925,120.884,49.107,135.357,49.134,151.968C49.165,171.839,47.915,210.195,46.946,219.116C46.445,223.733,45.798,232.638,45.510,238.907C44.926,251.568,44.805,251.819,36.971,256.808C35.131,257.980,33.863,259.322,34.153,259.791C35.192,261.472,38.987,260.594,41.960,257.983C43.633,256.514,45.560,255.544,46.266,255.815C48.865,256.812,49.604,253.876,50.080,240.665C50.341,233.430,50.922,223.534,51.371,218.675C51.821,213.815,52.443,202.384,52.755,193.273C53.362,175.490,53.260,175.792,58.037,177.608C61.481,178.918,68.232,178.878,71.973,177.525C74.316,176.678,75.483,176.620,76.180,177.316C77.133,178.270,78.569,186.263,82.254,211.165C84.968,229.504,88.546,251.995,89.027,253.740C89.253,254.561,95.536,257.487,97.329,258.079C101.281,259.403,105.809,263.152,107.029,258.730C107.029,257.446,105.363,256.249,100.480,254.023C93.463,250.825,93.221,250.502,92.016,242.659C89.279,224.863,88.228,218.394,86.682,209.839C85.716,204.494,84.693,197.933,84.408,195.261C83.713,188.749,83.058,183.739,81.390,175.560C82.482,170.686,82.853,168.380,84.061,160.778C85.405,152.325,88.376,134.542,87.968,120.602C87.597,107.940,86.596,101.254,84.452,97.107C83.675,95.604,83.268,94.146,83.546,93.867C91.643,104.866,93.862,111.846,103.034,126.345C107.005,132.390,110.528,139.491,113.586,145.148L117.783,152.906L114.661,156.363C111.200,160.193,108.977,166.567,110.346,168.736C111.914,171.223,114.192,170.269,115.455,166.597C116.989,162.134,119.629,158.605,121.435,158.598C122.213,158.596,123.868,157.202,125.111,155.502C126.355,153.801,130.891,149.030,135.191,144.899C148.917,131.714,158.568,114.366,161.310,97.949C161.675,95.762,162.406,94.587,163.593,94.277C164.609,94.011,166.024,91.715,166.024,90.668C166.024,89.679,165.830,87.231,166.341,86.916C166.914,86.562,167.425,82.453,165.004,78.104C165.004,78.104,167.744,77.767,169.142,77.946C170.387,78.105,169.590,80.899,170.319,80.818C173.360,80.481,178.857,78.642,182.892,77.655C188.514,75.965,178.902,73.806,173.290,72.008C170.187,70.234,169.106,72.283,168.452,74.346C168.070,75.548,166.315,75.314,164.661,75.314C162.481,75.314,161.964,73.700,160.544,69.194C155.695,53.814,149.197,44.081,132.817,27.668C124.285,19.118,122.255,16.615,122.646,15.120C122.928,14.043,122.717,13.253,122.148,13.253C121.605,13.253,121.161,12.259,121.161,11.044C121.161,9.297,120.715,8.835,119.022,8.835C117.368,8.835,116.753,8.239,116.307,6.204C115.988,4.757,115.983,2.770,116.295,1.787C116.735,0.401,116.467,0.000,115.099,0.000ZZM115.281,17.671C115.448,17.671,120.191,22.342,125.820,28.052C137.525,39.925,145.572,49.535,148.845,55.548C152.311,61.917,156.495,70.593,157.372,75.347C153.864,75.477,152.388,75.571,148.784,75.571C132.208,75.646,118.215,75.975,103.295,75.948C87.173,75.928,83.768,77.209,85.599,74.256C87.189,71.690,86.961,69.423,84.929,67.584C83.268,66.081,83.249,65.874,84.624,64.354C85.558,64.698,89.055,62.524,86.434,60.936C85.882,60.776,92.432,53.586,97.027,47.269C108.584,31.383,114.976,21.460,114.976,19.407C114.976,18.452,115.113,17.671,115.281,17.671ZZM63.328,42.571C67.741,42.650,72.210,44.509,75.613,47.817C77.933,50.072,79.571,55.127,79.238,57.114C79.248,57.293,79.258,57.469,79.264,57.657C79.331,59.884,77.713,62.123,76.369,64.133C75.923,64.839,75.081,65.154,73.420,65.422C69.564,66.043,68.149,66.876,68.149,68.526C68.149,69.472,66.957,69.800,63.510,69.807C60.959,69.811,56.822,70.061,54.315,70.362C49.851,70.898,49.727,70.850,48.267,68.027C45.264,62.220,47.261,51.855,52.543,46.755C55.581,43.820,59.433,42.502,63.328,42.571ZZM74.106,54.489C71.988,54.976,72.922,59.224,75.265,59.837C77.527,60.698,78.262,57.774,77.525,56.411C76.819,55.418,76.329,53.977,74.106,54.489ZZM60.639,74.217C65.334,74.217,66.984,75.225,64.101,76.331C62.477,76.954,58.483,76.927,56.884,76.282C54.286,75.234,56.136,74.217,60.639,74.217ZZM45.984,75.243C48.552,75.222,49.634,75.604,51.102,76.601C57.358,80.852,63.004,81.516,68.383,78.633C71.624,76.897,71.683,76.896,71.683,78.570C71.683,80.910,74.025,83.052,76.583,83.052C78.040,83.052,79.129,83.869,80.054,85.659C80.795,87.092,81.402,88.484,81.402,88.751C81.402,89.310,75.699,89.421,75.144,88.873C74.941,88.674,71.793,87.905,68.149,87.164C63.824,86.286,53.503,85.623,38.436,85.257C15.711,84.704,7.443,83.686,8.775,81.605C10.059,79.600,24.954,76.811,41.382,75.501C43.341,75.345,44.816,75.252,45.984,75.243ZZM147.498,77.833C149.913,77.829,152.148,77.865,154.161,77.967C149.205,78.736,151.823,81.810,150.246,84.014C148.718,85.543,112.191,90.376,86.544,88.944C86.544,88.944,85.719,89.060,83.659,85.237C82.264,82.646,81.913,78.922,83.020,78.839C86.565,78.572,95.753,78.143,109.150,78.064C123.157,78.621,137.029,77.850,147.498,77.833ZZM150.556,89.585C150.556,91.181,151.080,93.120,152.968,94.096C154.962,95.127,155.619,96.084,155.619,97.957C155.619,102.051,152.349,110.307,147.058,119.569C141.569,129.180,136.351,136.377,133.078,139.207C131.434,141.506,122.922,148.653,122.229,149.246C121.927,148.759,121.094,147.995,119.943,147.995C118.337,147.995,117.666,146.165,115.243,142.176C106.235,126.072,95.339,110.560,87.973,93.355C87.973,93.355,96.385,93.330,100.902,93.308C110.416,93.670,129.737,91.736,138.749,90.613C142.459,90.151,150.556,89.585,150.556,89.585ZZM74.950,94.255C80.406,96.949,82.272,105.128,82.272,126.345C82.272,142.702,81.210,152.594,78.435,162.129C76.547,168.612,76.092,169.353,72.926,171.094C68.147,173.721,64.818,174.160,60.346,172.753C55.283,171.160,52.933,168.995,53.690,166.619C54.608,163.734,54.251,141.246,53.094,129.027C52.517,122.936,51.294,115.177,50.378,111.785C48.191,102.529,48.665,95.335,51.107,90.562C58.634,90.090,68.803,91.477,74.950,94.255ZZ" style="fill: rgb(3, 3, 3);"/></g></g></g></svg>