<svg id="visual" viewBox="0 0 900 600" width="900" height="600" xmlns="http://www.w3.org/2000/svg" xmlns:xlink="http://www.w3.org/1999/xlink" version="1.1"><rect x="0" y="0" width="900" height="600" fill="#002233"></rect><path d="M0 487L21.5 469.5C43 452 86 417 128.8 415.2C171.7 413.3 214.3 444.7 257.2 463C300 481.3 343 486.7 385.8 488.3C428.7 490 471.3 488 514.2 488.2C557 488.3 600 490.7 642.8 489C685.7 487.3 728.3 481.7 771.2 478.5C814 475.3 857 474.7 878.5 474.3L900 474L900 601L878.5 601C857 601 814 601 771.2 601C728.3 601 685.7 601 642.8 601C600 601 557 601 514.2 601C471.3 601 428.7 601 385.8 601C343 601 300 601 257.2 601C214.3 601 171.7 601 128.8 601C86 601 43 601 21.5 601L0 601Z" fill="#0066FF" stroke-linecap="round" stroke-linejoin="miter"></path></svg>